<svg width="108" height="108" viewBox="0 0 108 108" fill="none" xmlns="http://www.w3.org/2000/svg">
<path d="M48.6294 28.8235C51.7905 26.4365 56.1557 26.4365 59.3167 28.8235C59.4508 28.9248 59.5979 29.0447 59.8918 29.2847C60.023 29.3919 60.0886 29.4455 60.1535 29.4965C61.641 30.6657 63.465 31.3282 65.3576 31.3869C65.4401 31.3895 65.5249 31.3905 65.6944 31.3926C66.0741 31.3973 66.2639 31.3998 66.432 31.4082C70.3908 31.6076 73.7349 34.4081 74.619 38.2646C74.6565 38.4282 74.6918 38.6145 74.7624 38.9869C74.7939 39.1531 74.8097 39.2362 74.8265 39.3169C75.2131 41.1669 76.1835 42.8445 77.5955 44.1037C77.6571 44.1586 77.7214 44.2138 77.8499 44.3241C78.1378 44.5714 78.2816 44.695 78.4049 44.8092C81.3092 47.5017 82.0672 51.7924 80.2608 55.3138C80.1841 55.4633 80.0912 55.6287 79.9054 55.9592C79.8225 56.1068 79.7811 56.1805 79.742 56.2532C78.8467 57.9183 78.5096 59.8261 78.7803 61.6965C78.7922 61.778 78.8059 61.8616 78.8332 62.0286C78.8944 62.4025 78.9251 62.5896 78.946 62.7562C79.4367 66.6819 77.254 70.455 73.6022 71.9938C73.4472 72.059 73.2697 72.1261 72.9144 72.2602C72.7559 72.32 72.6767 72.35 72.5999 72.3806C70.8417 73.0818 69.3548 74.327 68.3576 75.9334C68.314 76.0034 68.2707 76.0762 68.1841 76.2217C67.9902 76.5475 67.8932 76.7105 67.8019 76.8514C65.6495 80.1735 61.5475 81.6637 57.759 80.4996C57.5982 80.4502 57.419 80.3877 57.0606 80.2625C56.9005 80.2066 56.8205 80.1785 56.742 80.1528C54.9435 79.5619 53.0026 79.5619 51.204 80.1528C51.1256 80.1785 51.0455 80.2066 50.8856 80.2625C50.5271 80.3877 50.3479 80.4502 50.1871 80.4996C46.3987 81.6637 42.2967 80.1735 40.1442 76.8514C40.0529 76.7105 39.956 76.5475 39.762 76.2217C39.6754 76.0762 39.6321 76.0033 39.5886 75.9333C38.5914 74.3269 37.1045 73.0818 35.3462 72.3806C35.2695 72.35 35.1902 72.32 35.0316 72.2602C34.6764 72.1261 34.4988 72.059 34.3439 71.9938C30.6921 70.455 28.5095 66.6819 29.0002 62.7562C29.021 62.5896 29.0517 62.4025 29.1129 62.0286C29.1403 61.8616 29.154 61.778 29.1658 61.6965C29.4365 59.8261 29.0995 57.9183 28.2041 56.2532C28.1651 56.1805 28.1236 56.1068 28.0406 55.9592C27.8548 55.6287 27.762 55.4633 27.6854 55.3138C25.879 51.7924 26.637 47.5017 29.5412 44.8092C29.6645 44.695 29.8083 44.5714 30.0962 44.3241C30.2247 44.2138 30.2889 44.1586 30.3505 44.1037C31.7625 42.8445 32.733 41.1669 33.1196 39.3169C33.1364 39.2362 33.1522 39.1531 33.1837 38.9869C33.2543 38.6145 33.2896 38.4282 33.3271 38.2646C34.2113 34.4081 37.5554 31.6076 41.5142 31.4082C41.6821 31.3998 41.8721 31.3973 42.2517 31.3926C42.4212 31.3905 42.506 31.3895 42.5886 31.3869C44.4812 31.3282 46.305 30.6657 47.7926 29.4965C47.8575 29.4455 47.9231 29.3919 48.0543 29.2847C48.3482 29.0447 48.4952 28.9248 48.6294 28.8235ZM54.5789 43.457C54.186 43.3031 53.7494 43.3031 53.3564 43.457C53.085 43.5632 52.8354 43.7812 52.3362 44.217L51.1969 45.2116C50.9951 45.3879 50.8941 45.476 50.7832 45.5458C50.623 45.6466 50.447 45.7195 50.2624 45.7615C50.1347 45.7906 50.0009 45.7996 49.7336 45.8179L48.2249 45.9204C47.5639 45.9653 47.2334 45.9878 46.9662 46.1047C46.5796 46.2738 46.2709 46.5825 46.1019 46.9693C45.985 47.2366 45.9625 47.5672 45.9177 48.2285L45.8151 49.7376C45.797 50.0051 45.7879 50.1388 45.7588 50.2666C45.7169 50.4512 45.6439 50.6274 45.5431 50.7875C45.4734 50.8985 45.3852 50.9994 45.209 51.2014L44.2147 52.3411C43.779 52.8404 43.5612 53.0902 43.4549 53.3618C43.3012 53.7548 43.3012 54.1913 43.4549 54.5844C43.5612 54.856 43.779 55.1057 44.2147 55.6052L45.209 56.7448C45.3852 56.9467 45.4734 57.0478 45.5431 57.1587C45.6439 57.319 45.7169 57.4951 45.7588 57.6796C45.7879 57.8074 45.797 57.9411 45.8151 58.2085L45.9177 59.7176C45.9625 60.379 45.985 60.7097 46.1019 60.9769C46.2709 61.3636 46.5796 61.6723 46.9662 61.8414C47.2334 61.9583 47.5639 61.9808 48.2249 62.0258L49.7336 62.1283C50.0009 62.1465 50.1347 62.1556 50.2624 62.1847C50.447 62.2267 50.623 62.2996 50.7832 62.4004C50.8941 62.4702 50.9951 62.5584 51.1969 62.7346L52.3362 63.7293C52.8354 64.1651 53.085 64.383 53.3564 64.4894C53.7494 64.6432 54.186 64.6432 54.5789 64.4894C54.8503 64.383 55.0999 64.1651 55.5992 63.7293L56.7384 62.7346C56.9404 62.5584 57.0413 62.4702 57.1522 62.4004C57.3123 62.2996 57.4884 62.2267 57.6729 62.1847C57.8007 62.1556 57.9344 62.1465 58.2017 62.1283L59.7104 62.0258C60.3715 61.9808 60.702 61.9583 60.9692 61.8414C61.3558 61.6723 61.6644 61.3636 61.8334 60.9769C61.9503 60.7096 61.9728 60.379 62.0177 59.7176L62.1203 58.2085C62.1385 57.9411 62.1474 57.8074 62.1765 57.6796C62.2185 57.4951 62.2915 57.319 62.3923 57.1587C62.4621 57.0478 62.5502 56.9467 62.7264 56.7448L63.7206 55.6052C64.1563 55.1057 64.3741 54.856 64.4804 54.5844C64.6343 54.1913 64.6343 53.7548 64.4804 53.3618C64.3741 53.0902 64.1563 52.8404 63.7206 52.3411L62.7264 51.2014C62.5502 50.9994 62.4621 50.8985 62.3923 50.7875C62.2915 50.6274 62.2185 50.4512 62.1765 50.2666C62.1474 50.1389 62.1385 50.0051 62.1203 49.7376L62.0177 48.2285C61.9728 47.5672 61.9503 47.2366 61.8334 46.9693C61.6644 46.5825 61.3558 46.2738 60.9692 46.1047C60.702 45.9878 60.3715 45.9653 59.7104 45.9204L58.2017 45.8179C57.9344 45.7996 57.8007 45.7906 57.6729 45.7615C57.4884 45.7195 57.3123 45.6466 57.1522 45.5458C57.0413 45.476 56.9404 45.3879 56.7384 45.2116L55.5992 44.217C55.0999 43.7812 54.8503 43.5632 54.5789 43.457Z" fill="#3DDC84"/>
<path d="M61.0826 59.1749C60.1786 57.7578 59.2584 56.321 58.0361 55.1958C56.8137 54.0677 55.2303 53.2707 53.6067 53.3746C52.1811 53.4671 50.8597 54.2473 49.8166 55.2659C48.7734 56.2846 47.963 57.539 47.1659 58.782C45.01 62.1383 42.8516 65.4944 40.6957 68.8534C39.6713 70.4474 38.6201 72.1115 38.3365 74.0112C37.9942 76.3066 38.917 78.6442 40.5539 80.1708C42.2657 81.7675 45.0395 81.6384 47.1231 81.2006C49.4074 80.7208 51.6408 79.8172 53.9705 79.82C55.9658 79.82 57.8943 80.4879 59.8362 80.9734C61.7753 81.4561 63.859 81.7535 65.7313 81.0351C68.0557 80.1456 69.7247 77.6171 69.6793 75.0215C69.6365 72.653 67.0794 68.5672 67.0794 68.5672C67.0794 68.5672 63.0812 62.3059 61.0826 59.1749Z" fill="#007AFF"/>
</svg>
